<svg xmlns="http://www.w3.org/2000/svg" width="40" height="40" viewBox="8.346 8.346 40 40" enable-background="new 8.346 8.346 40 40"><g fill="#fff"><path d="M25.102 27.969s2.459-.184 2.459-3.069c0-2.884-2.013-4.293-4.562-4.293h-8.39v16.125h8.39s5.123.162 5.123-4.76c0-.001.222-4.003-3.02-4.003zm-6.796-4.497h4.694s1.14 0 1.14 1.677c0 1.678-.671 1.921-1.431 1.921h-4.404l.001-3.598zm4.456 10.393h-4.4559999999999995v-4.308h4.693s1.7-.023 1.7 2.213c0 1.887-1.271 2.081-1.937 2.095zM34.953 24.708c-6.2 0-6.196 6.196-6.196 6.196s-.424 6.164 6.196 6.164c0 0 5.518.315 5.518-4.288h-2.838s.095 1.734-2.585 1.734c0 0-2.837.188-2.837-2.807h8.354c0 .001.914-6.999-5.612-6.999zm-2.775 4.849s.346-2.487 2.836-2.487c2.492 0 2.46 2.487 2.46 2.487h-5.296zM31.483 21.556h6.651v1.986h-6.651z"/></g></svg>