<svg xmlns="http://www.w3.org/2000/svg" width="512" height="512" viewBox="0 0 512 512"><style type="text/css"><![CDATA[
	.st0{fill-rule:evenodd;clip-rule:evenodd;fill:#FFFFFF;}
]]></style><path class="st0" d="M256 109.7c-82.8 0-150 67.2-150 150 0 66.3 43 122.5 102.6 142.3 7.5 1.4 10.2-3.2 10.2-7.2 0-3.6-.1-13-.2-25.5-41.7 9.1-50.5-20.1-50.5-20.1-6.8-17.3-16.7-21.9-16.7-21.9-13.6-9.3 1-9.1 1-9.1 15.1 1.1 23 15.5 23 15.5 13.4 22.9 35.1 16.3 43.7 12.5 1.4-9.7 5.2-16.3 9.5-20.1-33.3-3.8-68.3-16.7-68.3-74.1 0-16.4 5.8-29.8 15.4-40.3-1.5-3.8-6.7-19 1.5-39.7 0 0 12.6-4 41.3 15.4 12-3.3 24.8-5 37.6-5 12.7.1 25.6 1.7 37.6 5 28.6-19.4 41.2-15.4 41.2-15.4 8.2 20.7 3 35.9 1.5 39.7 9.6 10.5 15.4 23.9 15.4 40.3 0 57.6-35.1 70.3-68.5 74 5.4 4.6 10.2 13.8 10.2 27.8 0 20.1-.2 36.2-.2 41.2 0 4 2.7 8.7 10.3 7.2 59.5-20 102.4-76.2 102.4-142.5 0-82.8-67.2-150-150-150z"/></svg>