<svg xmlns="http://www.w3.org/2000/svg" width="512" height="512" viewBox="0 0 512 512"><path fill="#fff" d="M373.607 117.591h-235.211c-11.268 0-20.396 8.878-20.396 19.836v237.151c0 10.943 9.129 19.824 20.396 19.824h235.211c11.267 0 20.393-8.881 20.393-19.824v-237.151c0-10.958-9.126-19.836-20.393-19.836zm-171.946 231.729h-41.683v-125.004h41.683v125.004zm-20.839-142.06h-.271c-13.986 0-23.036-9.611-23.036-21.603 0-12.261 9.324-21.6 23.584-21.6 14.258 0 23.036 9.339 23.308 21.6-.001 11.992-9.051 21.603-23.585 21.603zm171.162 142.06h-41.681v-66.871c0-16.809-6.035-28.269-21.123-28.269-11.512 0-18.381 7.728-21.394 15.187-1.101 2.674-1.372 6.416-1.372 10.148v69.805h-41.684s.548-113.276 0-125.004h41.685v17.715c5.543-8.52 15.441-20.647 37.571-20.647 27.43 0 47.998 17.863 47.998 56.262v71.674z"/></svg>