<svg xmlns="http://www.w3.org/2000/svg" width="369.6" height="50" viewBox="0 0 369.6 50"><style type="text/css">.st0{fill:#7F00FF;} .st1{fill:#FBB03B;} .st2{opacity:0.8;} .st3{fill:#FFFFFF;} .st4{fill:#00A99D;} .st5{fill:#00FFFF;}</style><path class="st0" d="M13.8 25.4l-13.8-25.4h17l19.1 25.4 13.8 24.6h-17.8l-18.3-24.6z"/><path class="st5" d="M18.8 25.4v24.6h-18.8v-50h14.6l4.2 25.4z"/><path class="st1" d="M31 25.4v-25.4h18.8v50h-15l-3.8-24.6z"/><path class="st4" d="M18.8 25.4v24.6h-18.8v-50h14.6l4.2 25.4z"/><path class="st0" d="M13.8 25.4l-13.8-25.4h17l19.1 25.4 13.8 24.6h-17.8l-18.3-24.6z"/><path class="st1" d="M31 25.4v-25.4h18.8v50h-15l-3.8-24.6z"/><path class="st3" d="M71.7 12.3c.1 0 .2 0 .3.1.1 0 .2.1.3.2l.3.3 15.3 19.9c0-.3 0-.6-.1-.9v-19.599999999999998h3.1v26.4h-1.9c-.3 0-.5 0-.7-.2-.2-.1-.4-.3-.6-.5l-15.2-19.9c0 .3 0 .6.1.9v19.6h-3.1v-26.3h2.2zm29.6 26.4h-3.6v-26.4h3.6v26.4zm20.5-22.3c-.1.2-.2.3-.4.4-.1.1-.3.1-.5.1s-.5-.1-.7-.3c-.3-.2-.6-.4-1.1-.7-.4-.3-.9-.5-1.5-.7-.6-.2-1.3-.3-2.2-.3-.8 0-1.5.1-2.1.3-.6.2-1.1.5-1.5.9-.4.4-.7.8-.9 1.3-.2.5-.3 1-.3 1.6 0 .7.2 1.3.5 1.8.4.5.8.9 1.4 1.2.6.3 1.3.6 2 .9l2.3.8c.8.3 1.6.6 2.3.9.8.3 1.4.8 2 1.3.6.5 1.1 1.1 1.4 1.9.4.8.5 1.7.5 2.8 0 1.2-.2 2.2-.6 3.3-.4 1-1 1.9-1.7 2.6-.8.7-1.7 1.3-2.8 1.8-1.1.4-2.4.6-3.8.6-1.7 0-3.3-.3-4.7-.9-1.4-.6-2.6-1.5-3.6-2.5l1-1.7c.1-.1.2-.2.4-.3.1-.1.3-.1.5-.1s.3.1.5.2.4.3.7.5l.9.6c.3.2.7.5 1.1.6.4.2.9.4 1.4.5.5.1 1.2.2 1.8.2.9 0 1.6-.1 2.3-.3.7-.2 1.2-.6 1.7-1s.8-.9 1.1-1.5c.2-.6.4-1.2.4-2s-.2-1.5-.6-2c-.4-.5-.8-.9-1.4-1.3-.6-.3-1.3-.6-2-.9l-2.3-.7c-.8-.2-1.6-.5-2.3-.9-.8-.3-1.4-.8-2-1.3-.6-.5-1.1-1.2-1.4-2-.4-.8-.5-1.8-.5-3 0-.9.2-1.8.5-2.7.4-.9.9-1.6 1.6-2.3.7-.7 1.6-1.2 2.6-1.6 1-.4 2.2-.6 3.5-.6 1.5 0 2.8.2 4 .7 1.2.5 2.3 1.1 3.2 2l-.7 1.8zm28.1 22.3h-3.6v-12h-14.3v12h-3.6v-26.4h3.6v11.8h14.3v-11.8h3.6v26.4zm10.5 0h-3.6v-26.4h3.6v26.4zm24.8-26.4v3h-8.6v23.4h-3.6v-23.4h-8.6v-3h20.8zm23 26.4h-2.8c-.3 0-.6-.1-.8-.2-.2-.2-.3-.4-.4-.6l-2.5-6.4h-11.9l-2.5 6.4c-.1.2-.2.4-.4.6-.2.2-.5.3-.8.3h-2.8l10.6-26.4h3.6l10.7 26.3zm-17.3-9.8h9.9l-4.1-10.7c-.1-.3-.3-.7-.4-1.1-.1-.4-.3-.9-.4-1.4-.1.5-.2.9-.4 1.4-.1.4-.3.8-.4 1.1l-4.2 10.7zm34.9-11.8c-.2.3-.4.5-.5.6-.2.1-.4.2-.7.2-.3 0-.6-.1-.9-.3-.3-.2-.7-.4-1.1-.6-.4-.2-.9-.4-1.4-.6-.5-.2-1.2-.3-1.9-.3-1.3 0-2.2.3-2.9.9-.6.6-1 1.3-1 2.2 0 .6.2 1.1.5 1.5.4.4.8.7 1.4 1 .6.3 1.2.5 1.9.8l2.2.7c.8.3 1.5.6 2.2.9.7.4 1.4.8 1.9 1.3.6.5 1 1.2 1.4 2 .3.8.5 1.7.5 2.9s-.2 2.4-.6 3.4c-.4 1.1-1 2-1.8 2.8-.8.8-1.8 1.4-3 1.9s-2.5.7-4 .7c-.8 0-1.7-.1-2.5-.3-.8-.2-1.7-.4-2.4-.7-.8-.3-1.5-.7-2.2-1.1-.7-.4-1.3-.9-1.8-1.4l1.6-2.6c.1-.2.3-.4.5-.5.2-.1.5-.2.7-.2.3 0 .7.1 1.1.4.4.2.8.5 1.3.8.5.3 1 .6 1.7.8.6.2 1.4.4 2.3.4 1.3 0 2.3-.3 3-.9.7-.6 1.1-1.5 1.1-2.6 0-.7-.2-1.2-.5-1.6-.3-.4-.8-.8-1.4-1.1-.6-.3-1.2-.5-1.9-.7-.7-.2-1.5-.4-2.2-.7-.8-.3-1.5-.5-2.2-.9-.7-.3-1.4-.8-1.9-1.4-.6-.6-1-1.3-1.4-2.1-.3-.8-.5-1.9-.5-3.1 0-1 .2-2 .6-2.9.4-.9 1-1.8 1.7-2.5.8-.7 1.7-1.3 2.8-1.7 1.1-.5 2.4-.7 3.8-.7 1.6 0 3.1.2 4.5.7 1.4.5 2.5 1.2 3.5 2.1l-1.5 2.5zm11.6 21.6h-5.6v-26.8h5.6v26.8zm9.3-26.7l.5.1.4.3.4.4 13.4 17.1-.1-1.4v-16.6h4.9v26.8h-2.9c-.4 0-.8-.1-1.1-.2-.3-.1-.6-.4-.9-.7l-13.3-17 .1 1.3v16.7h-4.9v-26.9h2.9c.3 0 .5 0 .6.1zm43.1 26.3c-1.5.5-3.2.7-4.9.7-2.2 0-4.2-.3-6-1-1.8-.7-3.3-1.6-4.6-2.8-1.3-1.2-2.2-2.7-2.9-4.3-.7-1.7-1-3.5-1-5.5s.3-3.8 1-5.5c.7-1.7 1.6-3.1 2.8-4.3 1.2-1.2 2.7-2.2 4.4-2.8 1.7-.7 3.7-1 5.8-1 1.1 0 2.1.1 3.1.3 1 .2 1.8.4 2.7.7.8.3 1.6.7 2.2 1.1.7.4 1.3.9 1.8 1.4l-1.6 2.5c-.2.4-.6.6-1 .7-.4.1-.8 0-1.3-.3-.4-.3-.9-.5-1.3-.7-.4-.2-.9-.4-1.4-.6-.5-.2-1-.3-1.6-.4-.6-.1-1.2-.1-2-.1-1.2 0-2.4.2-3.4.6-1 .4-1.9 1-2.6 1.8-.7.8-1.2 1.7-1.6 2.8-.4 1.1-.6 2.3-.6 3.7 0 1.5.2 2.8.6 4 .4 1.2 1 2.1 1.8 2.9.8.8 1.7 1.4 2.7 1.8 1.1.4 2.2.6 3.6.6.9 0 1.7-.1 2.4-.3.7-.2 1.4-.4 2-.7v-4.5h-3c-.4 0-.6-.1-.8-.3-.2-.2-.3-.4-.3-.7v-3.1h9.2v11.1c-1.2 1-2.7 1.7-4.2 2.2zm32 .4h-5.6v-11.5h-11.8v11.5h-5.6v-26.8h5.6v11.4h11.8v-11.4h5.6v26.8zm29.2 0h-4.3c-.5 0-.9-.1-1.2-.3-.3-.2-.5-.5-.7-.9l-1.8-5.1h-10.7l-1.8 5.1c-.1.3-.3.6-.6.8-.3.2-.7.4-1.2.4h-4.3l10.5-26.8h5.7l10.4 26.8zm-17.2-10.2h8l-2.9-8.2c-.2-.4-.4-.9-.5-1.5-.2-.6-.4-1.2-.6-1.9-.2.7-.3 1.3-.5 1.9-.2.6-.4 1.1-.5 1.5l-3 8.2zm25.4 5.7h10.4v4.5h-15.9v-26.8h5.5v22.3z"/></svg>