<svg xmlns="http://www.w3.org/2000/svg" width="512" height="512" viewBox="0 0 512 512"><path fill="#fff" d="M415 177.721c-10.697 4.755-22.209 7.962-34.288 9.397 12.333-7.383 21.79-19.079 26.25-33.03-11.536 6.845-24.306 11.814-37.909 14.495-10.886-11.6-26.402-18.854-43.572-18.854-32.965 0-59.693 26.727-59.693 59.699 0 4.672.525 9.226 1.548 13.604-49.616-2.493-93.609-26.255-123.053-62.374-5.139 8.812-8.081 19.066-8.081 30.017 0 20.709 10.538 38.984 26.556 49.687-9.781-.313-18.99-3-27.041-7.472l-.006.755c0 28.918 20.579 53.042 47.891 58.536-5.009 1.358-10.283 2.092-15.729 2.092-3.851 0-7.591-.373-11.235-1.076 7.602 23.716 29.646 40.981 55.765 41.459-20.431 16.013-46.166 25.559-74.14 25.559-4.814 0-9.569-.284-14.241-.839 26.426 16.946 57.802 26.822 91.512 26.822 109.811 0 169.852-90.964 169.852-169.853 0-2.588-.053-5.168-.165-7.731 11.658-8.401 21.781-18.92 29.779-30.893z"/></svg>